<svg xmlns="http://www.w3.org/2000/svg">
  <symbol fill="none" stroke="currentColor" stroke-linecap="round" stroke-linejoin="round" id="menu" viewBox="0 0 24 24"><rect x="4" y="4" width="6" height="6" rx="1.5"/><rect x="14" y="4" width="6" height="6" rx="1.5"/><rect x="4" y="14" width="6" height="6" rx="1.5"/><rect x="14" y="14" width="6" height="6" rx="1.5"/></symbol>
  <symbol fill="none" stroke="currentColor" stroke-linecap="round" stroke-linejoin="round" id="sound" viewBox="0 0 24 24"><path d="M11 4 6 8H3v8h3l5 4Z"/><path d="M15 8a6 6 0 0 1 0 8m3-11a10 10 0 0 1 0 14"/></symbol>
  <symbol fill="none" stroke="currentColor" stroke-linecap="round" stroke-linejoin="round" id="muted" viewBox="0 0 24 24"><path d="M11 4 6 8H3v8h3l5 4Z"/><path d="m16 9 5 6m0-6-5 6"/></symbol>
  <symbol fill="none" stroke="currentColor" stroke-linecap="round" stroke-linejoin="round" id="restart" viewBox="0 0 24 24"><path d="M4 10a8 8 0 1 1 1 7M4 4v6h6"/></symbol>
  <symbol fill="none" stroke="currentColor" stroke-linecap="round" stroke-linejoin="round" id="help" viewBox="0 0 24 24"><circle cx="12" cy="12" r="9"/><path d="M9.5 9a2.5 2.5 0 1 1 4 2c-1 .6-1.5 1-1.5 2M12 17h.01"/></symbol>
  <symbol fill="none" stroke="currentColor" stroke-linecap="round" stroke-linejoin="round" id="castle" viewBox="0 0 24 24"><path d="M4 21V9H2V3h4v3h4V3h4v3h4V3h4v6h-2v12ZM9 21v-6a3 3 0 0 1 6 0v6"/></symbol>
  <symbol fill="none" stroke="currentColor" stroke-linecap="round" stroke-linejoin="round" id="gold" viewBox="0 0 24 24"><circle cx="12" cy="12" r="9"/><path d="m12 7 4 5-4 5-4-5Z"/></symbol>
  <symbol fill="none" stroke="currentColor" stroke-linecap="round" stroke-linejoin="round" id="wave" viewBox="0 0 24 24"><path d="m4 5 7 7-7 7m9-14 7 7-7 7"/></symbol>
  <symbol fill="none" stroke="currentColor" stroke-linecap="round" stroke-linejoin="round" id="undo" viewBox="0 0 24 24"><path d="m9 3-5 5 5 5M4 8h10a6 6 0 0 1 0 12"/></symbol>
  <symbol fill="none" stroke="currentColor" stroke-linecap="round" stroke-linejoin="round" id="flask" viewBox="0 0 24 24"><path d="m14 3 7 7M15 4 4 15a3.54 3.54 0 0 0 5 5L20 9M10 9l5 5M7 12l2 2"/></symbol>
  <symbol fill="none" stroke="currentColor" stroke-linecap="round" stroke-linejoin="round" id="add" viewBox="0 0 24 24"><path d="M12 5v14M5 12h14"/></symbol>
  <symbol fill="none" stroke="currentColor" stroke-linecap="round" stroke-linejoin="round" id="hint" viewBox="0 0 24 24"><path d="M9 18h6M10 21h4M8 14a6 6 0 1 1 8 0c-1 1-1 2-1 2H9s0-1-1-2Z"/></symbol>
  <symbol fill="none" stroke="currentColor" stroke-linecap="round" stroke-linejoin="round" id="lock" viewBox="0 0 24 24"><rect x="5" y="10" width="14" height="11" rx="3"/><path d="M8 10V7a4 4 0 0 1 8 0v3M12 14v3"/></symbol>
  <symbol fill="none" stroke="currentColor" stroke-linecap="round" stroke-linejoin="round" id="trophy" viewBox="0 0 24 24"><path d="M8 3h8v6a4 4 0 0 1-8 0ZM8 5H4v2a4 4 0 0 0 4 4m8-6h4v2a4 4 0 0 1-4 4M12 13v5M8 21h8M9 18h6v3"/></symbol>
  <symbol fill="none" stroke="currentColor" stroke-linecap="round" stroke-linejoin="round" id="shield" viewBox="0 0 24 24"><path d="m12 3 8 3v6c0 4-4 7-8 9-4-2-8-5-8-9V6ZM9 9l6 6m0-6-6 6"/></symbol>
  <symbol fill="none" stroke="currentColor" stroke-linecap="round" stroke-linejoin="round" id="levels" viewBox="0 0 24 24"><rect x="3" y="3" width="7" height="7" rx="2"/><rect x="14" y="3" width="7" height="7" rx="2"/><rect x="3" y="14" width="7" height="7" rx="2"/><path d="M14 17.5h7m-3-3 3 3-3 3"/></symbol>
  <symbol fill="none" stroke="currentColor" stroke-linecap="round" stroke-linejoin="round" id="book" viewBox="0 0 24 24"><path d="M12 5C9 3 5 3 3 4v15c3-1 6-1 9 1 3-2 6-2 9-1V4c-2-1-6-1-9 1Zm0 0v15M6 8h3m-3 4h3m6-4h3m-3 4h3"/></symbol>
  <symbol fill="none" stroke="currentColor" stroke-linecap="round" stroke-linejoin="round" id="close" viewBox="0 0 24 24"><path d="m6 6 12 12M6 18 18 6"/></symbol>
  <symbol fill="none" stroke="currentColor" stroke-linecap="round" stroke-linejoin="round" id="chevron" viewBox="0 0 24 24"><path d="m9 5 7 7-7 7"/></symbol>
  <symbol fill="none" stroke="currentColor" stroke-linecap="round" stroke-linejoin="round" id="gun" viewBox="0 0 24 24"><path d="m7 13 9-9 5 5-9 9ZM14 6l5 5M3 21h16M6 21v-5h8v5"/><circle cx="9" cy="16" r="2"/></symbol>
  <symbol fill="none" stroke="currentColor" stroke-linecap="round" stroke-linejoin="round" id="frost" viewBox="0 0 24 24"><path d="M12 2v20M3.3 7l17.4 10M3.3 17 20.7 7M9 4l3 3 3-3M9 20l3-3 3 3M4 10l4-1-1-4m10 14-1-4 4-1M4 14l4 1-1 4M17 5l-1 4 4 1"/></symbol>
  <symbol fill="none" stroke="currentColor" stroke-linecap="round" stroke-linejoin="round" id="tesla" viewBox="0 0 24 24"><path d="m14 2-10 12h7l-1 8L21 9h-8Z"/></symbol>
  <symbol fill="none" stroke="currentColor" stroke-linecap="round" stroke-linejoin="round" id="mortar" viewBox="0 0 24 24"><path d="m8 15-4-8 7-3 4 8ZM5 6l7-3M3 21h18M7 21v-4h9v4M18 4l1-2m1 6 2-1"/><circle cx="12" cy="15" r="3"/></symbol>
  <symbol fill="none" stroke="currentColor" stroke-linecap="round" stroke-linejoin="round" id="lights" viewBox="0 0 24 24"><circle cx="12" cy="12" r="8"/><circle cx="12" cy="4" r="2.5" fill="currentColor" stroke="none"/><circle cx="5.1" cy="16" r="2.5" fill="currentColor" stroke="none"/><circle cx="18.9" cy="16" r="2.5" fill="currentColor" stroke="none"/><path d="m10 12 2-2 2 2-2 2Z"/></symbol>
  <symbol fill="none" stroke="currentColor" stroke-linecap="round" stroke-linejoin="round" id="sprout" viewBox="0 0 24 24"><path d="M12 21v-8M12 15C5 16 3 12 3 6c7 0 10 3 9 9Zm0-3C12 5 16 3 21 3c0 7-3 10-9 9Z"/></symbol>
  <symbol fill="none" stroke="currentColor" stroke-linecap="round" stroke-linejoin="round" id="arrows" viewBox="0 0 24 24"><path d="M4 20V9h7V4m-3 3 3-3 3 3M9 20h7v-8h5m-3-3 3 3-3 3"/></symbol>
  <symbol fill="none" stroke="currentColor" stroke-linecap="round" stroke-linejoin="round" id="grid" viewBox="0 0 24 24"><rect x="3" y="3" width="18" height="18" rx="2"/><path d="M9 3v18M15 3v18M3 9h18M3 15h18"/></symbol>
  <symbol fill="none" stroke="currentColor" stroke-linecap="round" stroke-linejoin="round" id="mahjong" viewBox="0 0 24 24"><rect x="3" y="3" width="13" height="17" rx="3"/><path d="M18 6h1a2 2 0 0 1 2 2v11a3 3 0 0 1-3 3H8"/><text x="9.5" y="15.5" text-anchor="middle" font-family="Songti SC, SimSun, serif" font-size="12" font-weight="600" fill="currentColor" stroke="none">中</text></symbol>
  <symbol fill="none" stroke="currentColor" stroke-linecap="round" stroke-linejoin="round" id="shuffle" viewBox="0 0 24 24"><path d="M3 6h3c5 0 7 12 12 12h3m-4-4 4 4-4 4M3 18h3c2 0 3-2 4-4m4-4c1-2 2-4 4-4h3m-4-4 4 4-4 4"/></symbol>
  <symbol fill="none" stroke="currentColor" stroke-linecap="round" stroke-linejoin="round" id="memory" viewBox="0 0 24 24"><rect x="3" y="3" width="18" height="18" rx="3"/><path d="M9 3v18m6-18v18M3 9h18M3 15h18"/><circle cx="12" cy="12" r="1.3" fill="currentColor" stroke="none"/></symbol>
  <symbol fill="none" stroke="currentColor" stroke-linecap="round" stroke-linejoin="round" id="memory-leaf" viewBox="0 0 24 24"><path d="M20 4C9 4 4 8 4 15a5 5 0 0 0 5 5c7 0 11-5 11-16ZM5 19c3-4 7-7 12-10"/></symbol>
  <symbol fill="none" stroke="currentColor" stroke-linecap="round" stroke-linejoin="round" id="memory-acorn" viewBox="0 0 24 24"><path d="M5 10c0-4 14-4 14 0v2H5Zm2 2c0 5 2 8 5 9 3-1 5-4 5-9M12 6V3m0 1c2 0 3-1 4-2"/></symbol>
  <symbol fill="none" stroke="currentColor" stroke-linecap="round" stroke-linejoin="round" id="memory-mushroom" viewBox="0 0 24 24"><path d="M3 12a9 9 0 0 1 18 0c0 2-2 3-4 2-2-1-3-1-5 0-2-1-3-1-5 0-2 1-4 0-4-2Zm7 3v5h4v-5"/><circle cx="8" cy="10" r="1"/><circle cx="15" cy="9" r="1"/></symbol>
  <symbol fill="none" stroke="currentColor" stroke-linecap="round" stroke-linejoin="round" id="memory-feather" viewBox="0 0 24 24"><path d="M4 21c2-7 6-13 15-18 3 6 0 13-5 15-3 1-6 0-8 1m-2 2c5-5 9-8 15-12"/></symbol>
  <symbol fill="none" stroke="currentColor" stroke-linecap="round" stroke-linejoin="round" id="memory-sun" viewBox="0 0 24 24"><circle cx="12" cy="12" r="4"/><path d="M12 2v3m0 14v3M2 12h3m14 0h3M5 5l2 2m10 10 2 2M19 5l-2 2M7 17l-2 2"/></symbol>
  <symbol fill="none" stroke="currentColor" stroke-linecap="round" stroke-linejoin="round" id="memory-moon" viewBox="0 0 24 24"><path d="M20 15A8 8 0 0 1 9 4a8 8 0 1 0 11 11Z"/><path d="m17 3 .4 1.6L19 5l-1.6.4L17 7l-.4-1.6L15 5l1.6-.4Z"/></symbol>
  <symbol fill="none" stroke="currentColor" stroke-linecap="round" stroke-linejoin="round" id="memory-star" viewBox="0 0 24 24"><path d="m12 2 2.8 6.4 7 .7-5.3 4.7 1.5 7-6-3.7-6 3.7 1.5-7L2.2 9l7-.7Z"/></symbol>
  <symbol fill="none" stroke="currentColor" stroke-linecap="round" stroke-linejoin="round" id="memory-drop" viewBox="0 0 24 24"><path d="M12 2C9 7 5 11 5 15a7 7 0 0 0 14 0c0-4-4-8-7-13ZM9 16c0 2 1 3 3 3"/></symbol>
  <symbol fill="none" stroke="currentColor" stroke-linecap="round" stroke-linejoin="round" id="memory-mountain" viewBox="0 0 24 24"><path d="m2 20 7-13 4 7 2-4 7 10ZM7 11l2 2 2-2m3 3 1 1 2-2"/></symbol>
  <symbol fill="none" stroke="currentColor" stroke-linecap="round" stroke-linejoin="round" id="memory-flower" viewBox="0 0 24 24"><circle cx="12" cy="11" r="2"/><path d="M12 9c-3-7-7-4-4 0-6-3-7 2-2 4-3 5 2 7 5 2 2 6 7 4 6-1 6 0 5-6 0-5 2-5-2-8-5-2ZM12 17v5m0-2 4-2"/></symbol>
  <symbol fill="none" stroke="currentColor" stroke-linecap="round" stroke-linejoin="round" id="memory-paw" viewBox="0 0 24 24"><path d="M6 20c-2-2-1-5 2-6l4-2 4 2c3 1 4 4 2 6-2 2-4 0-6 0s-4 2-6 0Z"/><ellipse cx="5" cy="10" rx="1.5" ry="2"/><ellipse cx="9" cy="7" rx="1.5" ry="2"/><ellipse cx="15" cy="7" rx="1.5" ry="2"/><ellipse cx="19" cy="10" rx="1.5" ry="2"/></symbol>
  <symbol fill="none" stroke="currentColor" stroke-linecap="round" stroke-linejoin="round" id="memory-lantern" viewBox="0 0 24 24"><path d="M8 8h8l2 12H6L8 8Zm2 0V5a2 2 0 0 1 4 0v3M6 12h12M9 20v2m6-2v2M12 13c-1 2-1 4 0 5 1-1 1-3 0-5Z"/></symbol>
</svg>
