<svg xmlns="http://www.w3.org/2000/svg">
  <symbol fill="none" stroke="currentColor" stroke-linecap="round" stroke-linejoin="round" id="menu" viewBox="0 0 24 24"><rect x="4" y="4" width="6" height="6" rx="1.5"/><rect x="14" y="4" width="6" height="6" rx="1.5"/><rect x="4" y="14" width="6" height="6" rx="1.5"/><rect x="14" y="14" width="6" height="6" rx="1.5"/></symbol>
  <symbol fill="none" stroke="currentColor" stroke-linecap="round" stroke-linejoin="round" id="sound" viewBox="0 0 24 24"><path d="M11 4 6 8H3v8h3l5 4Z"/><path d="M15 8a6 6 0 0 1 0 8m3-11a10 10 0 0 1 0 14"/></symbol>
  <symbol fill="none" stroke="currentColor" stroke-linecap="round" stroke-linejoin="round" id="muted" viewBox="0 0 24 24"><path d="M11 4 6 8H3v8h3l5 4Z"/><path d="m16 9 5 6m0-6-5 6"/></symbol>
  <symbol fill="none" stroke="currentColor" stroke-linecap="round" stroke-linejoin="round" id="restart" viewBox="0 0 24 24"><path d="M4 10a8 8 0 1 1 1 7M4 4v6h6"/></symbol>
  <symbol fill="none" stroke="currentColor" stroke-linecap="round" stroke-linejoin="round" id="help" viewBox="0 0 24 24"><circle cx="12" cy="12" r="9"/><path d="M9.5 9a2.5 2.5 0 1 1 4 2c-1 .6-1.5 1-1.5 2M12 17h.01"/></symbol>
  <symbol fill="none" stroke="currentColor" stroke-linecap="round" stroke-linejoin="round" id="castle" viewBox="0 0 24 24"><path d="M4 21V9H2V3h4v3h4V3h4v3h4V3h4v6h-2v12ZM9 21v-6a3 3 0 0 1 6 0v6"/></symbol>
  <symbol fill="none" stroke="currentColor" stroke-linecap="round" stroke-linejoin="round" id="gold" viewBox="0 0 24 24"><circle cx="12" cy="12" r="9"/><path d="m12 7 4 5-4 5-4-5Z"/></symbol>
  <symbol fill="none" stroke="currentColor" stroke-linecap="round" stroke-linejoin="round" id="wave" viewBox="0 0 24 24"><path d="m4 5 7 7-7 7m9-14 7 7-7 7"/></symbol>
  <symbol fill="none" stroke="currentColor" stroke-linecap="round" stroke-linejoin="round" id="undo" viewBox="0 0 24 24"><path d="m9 3-5 5 5 5M4 8h10a6 6 0 0 1 0 12"/></symbol>
  <symbol fill="none" stroke="currentColor" stroke-linecap="round" stroke-linejoin="round" id="flask" viewBox="0 0 24 24"><path d="m14 3 7 7M15 4 4 15a3.54 3.54 0 0 0 5 5L20 9M10 9l5 5M7 12l2 2"/></symbol>
  <symbol fill="none" stroke="currentColor" stroke-linecap="round" stroke-linejoin="round" id="add" viewBox="0 0 24 24"><path d="M12 5v14M5 12h14"/></symbol>
  <symbol fill="none" stroke="currentColor" stroke-linecap="round" stroke-linejoin="round" id="hint" viewBox="0 0 24 24"><path d="M9 18h6M10 21h4M8 14a6 6 0 1 1 8 0c-1 1-1 2-1 2H9s0-1-1-2Z"/></symbol>
  <symbol fill="none" stroke="currentColor" stroke-linecap="round" stroke-linejoin="round" id="lock" viewBox="0 0 24 24"><rect x="5" y="10" width="14" height="11" rx="3"/><path d="M8 10V7a4 4 0 0 1 8 0v3M12 14v3"/></symbol>
  <symbol fill="none" stroke="currentColor" stroke-linecap="round" stroke-linejoin="round" id="trophy" viewBox="0 0 24 24"><path d="M8 3h8v6a4 4 0 0 1-8 0ZM8 5H4v2a4 4 0 0 0 4 4m8-6h4v2a4 4 0 0 1-4 4M12 13v5M8 21h8M9 18h6v3"/></symbol>
  <symbol fill="none" stroke="currentColor" stroke-linecap="round" stroke-linejoin="round" id="shield" viewBox="0 0 24 24"><path d="m12 3 8 3v6c0 4-4 7-8 9-4-2-8-5-8-9V6ZM9 9l6 6m0-6-6 6"/></symbol>
  <symbol fill="none" stroke="currentColor" stroke-linecap="round" stroke-linejoin="round" id="levels" viewBox="0 0 24 24"><rect x="3" y="3" width="7" height="7" rx="2"/><rect x="14" y="3" width="7" height="7" rx="2"/><rect x="3" y="14" width="7" height="7" rx="2"/><path d="M14 17.5h7m-3-3 3 3-3 3"/></symbol>
  <symbol fill="none" stroke="currentColor" stroke-linecap="round" stroke-linejoin="round" id="book" viewBox="0 0 24 24"><path d="M12 5C9 3 5 3 3 4v15c3-1 6-1 9 1 3-2 6-2 9-1V4c-2-1-6-1-9 1Zm0 0v15M6 8h3m-3 4h3m6-4h3m-3 4h3"/></symbol>
  <symbol fill="none" stroke="currentColor" stroke-linecap="round" stroke-linejoin="round" id="close" viewBox="0 0 24 24"><path d="m6 6 12 12M6 18 18 6"/></symbol>
  <symbol fill="none" stroke="currentColor" stroke-linecap="round" stroke-linejoin="round" id="chevron" viewBox="0 0 24 24"><path d="m9 5 7 7-7 7"/></symbol>
  <symbol fill="none" stroke="currentColor" stroke-linecap="round" stroke-linejoin="round" id="gun" viewBox="0 0 24 24"><path d="m7 13 9-9 5 5-9 9ZM14 6l5 5M3 21h16M6 21v-5h8v5"/><circle cx="9" cy="16" r="2"/></symbol>
  <symbol fill="none" stroke="currentColor" stroke-linecap="round" stroke-linejoin="round" id="frost" viewBox="0 0 24 24"><path d="M12 2v20M3.3 7l17.4 10M3.3 17 20.7 7M9 4l3 3 3-3M9 20l3-3 3 3M4 10l4-1-1-4m10 14-1-4 4-1M4 14l4 1-1 4M17 5l-1 4 4 1"/></symbol>
  <symbol fill="none" stroke="currentColor" stroke-linecap="round" stroke-linejoin="round" id="tesla" viewBox="0 0 24 24"><path d="m14 2-10 12h7l-1 8L21 9h-8Z"/></symbol>
  <symbol fill="none" stroke="currentColor" stroke-linecap="round" stroke-linejoin="round" id="mortar" viewBox="0 0 24 24"><path d="m8 15-4-8 7-3 4 8ZM5 6l7-3M3 21h18M7 21v-4h9v4M18 4l1-2m1 6 2-1"/><circle cx="12" cy="15" r="3"/></symbol>
  <symbol fill="none" stroke="currentColor" stroke-linecap="round" stroke-linejoin="round" id="lights" viewBox="0 0 24 24"><circle cx="12" cy="12" r="8"/><circle cx="12" cy="4" r="2.5" fill="currentColor" stroke="none"/><circle cx="5.1" cy="16" r="2.5" fill="currentColor" stroke="none"/><circle cx="18.9" cy="16" r="2.5" fill="currentColor" stroke="none"/><path d="m10 12 2-2 2 2-2 2Z"/></symbol>
  <symbol fill="none" stroke="currentColor" stroke-linecap="round" stroke-linejoin="round" id="sprout" viewBox="0 0 24 24"><path d="M12 21v-8M12 15C5 16 3 12 3 6c7 0 10 3 9 9Zm0-3C12 5 16 3 21 3c0 7-3 10-9 9Z"/></symbol>
  <symbol fill="none" stroke="currentColor" stroke-linecap="round" stroke-linejoin="round" id="arrows" viewBox="0 0 24 24"><path d="M4 20V9h7V4m-3 3 3-3 3 3M9 20h7v-8h5m-3-3 3 3-3 3"/></symbol>
  <symbol fill="none" stroke="currentColor" stroke-linecap="round" stroke-linejoin="round" id="grid" viewBox="0 0 24 24"><rect x="3" y="3" width="18" height="18" rx="2"/><path d="M9 3v18M15 3v18M3 9h18M3 15h18"/></symbol>
  <symbol fill="none" stroke="currentColor" stroke-linecap="round" stroke-linejoin="round" id="minus" viewBox="0 0 24 24"><path d="M5 12h14"/></symbol>
</svg>
