<svg xmlns="http://www.w3.org/2000/svg" viewBox="0 0 48 68" aria-hidden="true" focusable="false"><g transform="rotate(0 24 19)"><path d="M24 12V26" fill="none" stroke="#245438" stroke-width="2.1" stroke-linecap="round" stroke-linejoin="round"/><circle cx="24" cy="12" r="3" fill="#245438"/><circle cx="24" cy="16.666666666666668" r="3" fill="#245438"/><circle cx="24" cy="21.333333333333336" r="3" fill="#245438"/><circle cx="24" cy="26" r="3" fill="#245438"/><ellipse cx="24" cy="12" rx="1.2" ry="1.4" fill="#fff9e9"/><ellipse cx="24" cy="16.666666666666668" rx="1.2" ry="1.4" fill="#fff9e9"/><ellipse cx="24" cy="21.333333333333336" rx="1.2" ry="1.4" fill="#fff9e9"/><ellipse cx="24" cy="26" rx="1.2" ry="1.4" fill="#fff9e9"/></g><g transform="rotate(0 24 49)"><path d="M24 42V56" fill="none" stroke="#18242a" stroke-width="2.1" stroke-linecap="round" stroke-linejoin="round"/><circle cx="24" cy="42" r="3" fill="#18242a"/><circle cx="24" cy="46.666666666666664" r="3" fill="#18242a"/><circle cx="24" cy="51.333333333333336" r="3" fill="#18242a"/><circle cx="24" cy="56" r="3" fill="#18242a"/><ellipse cx="24" cy="42" rx="1.2" ry="1.4" fill="#fff9e9"/><ellipse cx="24" cy="46.666666666666664" rx="1.2" ry="1.4" fill="#fff9e9"/><ellipse cx="24" cy="51.333333333333336" rx="1.2" ry="1.4" fill="#fff9e9"/><ellipse cx="24" cy="56" rx="1.2" ry="1.4" fill="#fff9e9"/></g></svg>