<svg xmlns="http://www.w3.org/2000/svg" viewBox="0 0 48 68" aria-hidden="true" focusable="false"><g transform="translate(15 12) scale(6.5)"><circle cx="0" cy="0" r="1" fill="#18242a"/><path d="M0-.18C-.16-.30-.39-.38-.36-.60Q-.29-.81 0-.79Q.29-.81.36-.60C.39-.38.16-.30 0-.18Z" fill="#fff9e9" transform="rotate(45) scale(.88)"/><path d="M0-.18C-.16-.30-.39-.38-.36-.60Q-.29-.81 0-.79Q.29-.81.36-.60C.39-.38.16-.30 0-.18Z" fill="#fff9e9" transform="rotate(135) scale(.88)"/><path d="M0-.18C-.16-.30-.39-.38-.36-.60Q-.29-.81 0-.79Q.29-.81.36-.60C.39-.38.16-.30 0-.18Z" fill="#fff9e9" transform="rotate(225) scale(.88)"/><path d="M0-.18C-.16-.30-.39-.38-.36-.60Q-.29-.81 0-.79Q.29-.81.36-.60C.39-.38.16-.30 0-.18Z" fill="#fff9e9" transform="rotate(315) scale(.88)"/></g><g transform="translate(33 12) scale(6.5)"><circle cx="0" cy="0" r="1" fill="#18242a"/><path d="M0-.18C-.16-.30-.39-.38-.36-.60Q-.29-.81 0-.79Q.29-.81.36-.60C.39-.38.16-.30 0-.18Z" fill="#fff9e9" transform="rotate(45) scale(.88)"/><path d="M0-.18C-.16-.30-.39-.38-.36-.60Q-.29-.81 0-.79Q.29-.81.36-.60C.39-.38.16-.30 0-.18Z" fill="#fff9e9" transform="rotate(135) scale(.88)"/><path d="M0-.18C-.16-.30-.39-.38-.36-.60Q-.29-.81 0-.79Q.29-.81.36-.60C.39-.38.16-.30 0-.18Z" fill="#fff9e9" transform="rotate(225) scale(.88)"/><path d="M0-.18C-.16-.30-.39-.38-.36-.60Q-.29-.81 0-.79Q.29-.81.36-.60C.39-.38.16-.30 0-.18Z" fill="#fff9e9" transform="rotate(315) scale(.88)"/></g><g transform="translate(15 26.5) scale(6.5)"><circle cx="0" cy="0" r="1" fill="#18242a"/><path d="M0-.18C-.16-.30-.39-.38-.36-.60Q-.29-.81 0-.79Q.29-.81.36-.60C.39-.38.16-.30 0-.18Z" fill="#fff9e9" transform="rotate(45) scale(.88)"/><path d="M0-.18C-.16-.30-.39-.38-.36-.60Q-.29-.81 0-.79Q.29-.81.36-.60C.39-.38.16-.30 0-.18Z" fill="#fff9e9" transform="rotate(135) scale(.88)"/><path d="M0-.18C-.16-.30-.39-.38-.36-.60Q-.29-.81 0-.79Q.29-.81.36-.60C.39-.38.16-.30 0-.18Z" fill="#fff9e9" transform="rotate(225) scale(.88)"/><path d="M0-.18C-.16-.30-.39-.38-.36-.60Q-.29-.81 0-.79Q.29-.81.36-.60C.39-.38.16-.30 0-.18Z" fill="#fff9e9" transform="rotate(315) scale(.88)"/></g><g transform="translate(33 26.5) scale(6.5)"><circle cx="0" cy="0" r="1" fill="#18242a"/><path d="M0-.18C-.16-.30-.39-.38-.36-.60Q-.29-.81 0-.79Q.29-.81.36-.60C.39-.38.16-.30 0-.18Z" fill="#fff9e9" transform="rotate(45) scale(.88)"/><path d="M0-.18C-.16-.30-.39-.38-.36-.60Q-.29-.81 0-.79Q.29-.81.36-.60C.39-.38.16-.30 0-.18Z" fill="#fff9e9" transform="rotate(135) scale(.88)"/><path d="M0-.18C-.16-.30-.39-.38-.36-.60Q-.29-.81 0-.79Q.29-.81.36-.60C.39-.38.16-.30 0-.18Z" fill="#fff9e9" transform="rotate(225) scale(.88)"/><path d="M0-.18C-.16-.30-.39-.38-.36-.60Q-.29-.81 0-.79Q.29-.81.36-.60C.39-.38.16-.30 0-.18Z" fill="#fff9e9" transform="rotate(315) scale(.88)"/></g><g transform="translate(15 41) scale(6.5)"><circle cx="0" cy="0" r="1" fill="#18242a"/><path d="M0-.18C-.16-.30-.39-.38-.36-.60Q-.29-.81 0-.79Q.29-.81.36-.60C.39-.38.16-.30 0-.18Z" fill="#fff9e9" transform="rotate(45) scale(.88)"/><path d="M0-.18C-.16-.30-.39-.38-.36-.60Q-.29-.81 0-.79Q.29-.81.36-.60C.39-.38.16-.30 0-.18Z" fill="#fff9e9" transform="rotate(135) scale(.88)"/><path d="M0-.18C-.16-.30-.39-.38-.36-.60Q-.29-.81 0-.79Q.29-.81.36-.60C.39-.38.16-.30 0-.18Z" fill="#fff9e9" transform="rotate(225) scale(.88)"/><path d="M0-.18C-.16-.30-.39-.38-.36-.60Q-.29-.81 0-.79Q.29-.81.36-.60C.39-.38.16-.30 0-.18Z" fill="#fff9e9" transform="rotate(315) scale(.88)"/></g><g transform="translate(33 41) scale(6.5)"><circle cx="0" cy="0" r="1" fill="#18242a"/><path d="M0-.18C-.16-.30-.39-.38-.36-.60Q-.29-.81 0-.79Q.29-.81.36-.60C.39-.38.16-.30 0-.18Z" fill="#fff9e9" transform="rotate(45) scale(.88)"/><path d="M0-.18C-.16-.30-.39-.38-.36-.60Q-.29-.81 0-.79Q.29-.81.36-.60C.39-.38.16-.30 0-.18Z" fill="#fff9e9" transform="rotate(135) scale(.88)"/><path d="M0-.18C-.16-.30-.39-.38-.36-.60Q-.29-.81 0-.79Q.29-.81.36-.60C.39-.38.16-.30 0-.18Z" fill="#fff9e9" transform="rotate(225) scale(.88)"/><path d="M0-.18C-.16-.30-.39-.38-.36-.60Q-.29-.81 0-.79Q.29-.81.36-.60C.39-.38.16-.30 0-.18Z" fill="#fff9e9" transform="rotate(315) scale(.88)"/></g><g transform="translate(15 55.5) scale(6.5)"><circle cx="0" cy="0" r="1" fill="#18242a"/><path d="M0-.18C-.16-.30-.39-.38-.36-.60Q-.29-.81 0-.79Q.29-.81.36-.60C.39-.38.16-.30 0-.18Z" fill="#fff9e9" transform="rotate(45) scale(.88)"/><path d="M0-.18C-.16-.30-.39-.38-.36-.60Q-.29-.81 0-.79Q.29-.81.36-.60C.39-.38.16-.30 0-.18Z" fill="#fff9e9" transform="rotate(135) scale(.88)"/><path d="M0-.18C-.16-.30-.39-.38-.36-.60Q-.29-.81 0-.79Q.29-.81.36-.60C.39-.38.16-.30 0-.18Z" fill="#fff9e9" transform="rotate(225) scale(.88)"/><path d="M0-.18C-.16-.30-.39-.38-.36-.60Q-.29-.81 0-.79Q.29-.81.36-.60C.39-.38.16-.30 0-.18Z" fill="#fff9e9" transform="rotate(315) scale(.88)"/></g><g transform="translate(33 55.5) scale(6.5)"><circle cx="0" cy="0" r="1" fill="#18242a"/><path d="M0-.18C-.16-.30-.39-.38-.36-.60Q-.29-.81 0-.79Q.29-.81.36-.60C.39-.38.16-.30 0-.18Z" fill="#fff9e9" transform="rotate(45) scale(.88)"/><path d="M0-.18C-.16-.30-.39-.38-.36-.60Q-.29-.81 0-.79Q.29-.81.36-.60C.39-.38.16-.30 0-.18Z" fill="#fff9e9" transform="rotate(135) scale(.88)"/><path d="M0-.18C-.16-.30-.39-.38-.36-.60Q-.29-.81 0-.79Q.29-.81.36-.60C.39-.38.16-.30 0-.18Z" fill="#fff9e9" transform="rotate(225) scale(.88)"/><path d="M0-.18C-.16-.30-.39-.38-.36-.60Q-.29-.81 0-.79Q.29-.81.36-.60C.39-.38.16-.30 0-.18Z" fill="#fff9e9" transform="rotate(315) scale(.88)"/></g></svg>