<svg xmlns="http://www.w3.org/2000/svg" viewBox="0 0 48 68" aria-hidden="true" focusable="false"><path d="M969 167L969 187Q968 244 948 244Q930 244 921 191Q917 163 908 129Q899 95 892 76Q886 57 877 44.5Q868 32 846.5 26.5Q825 21 778 21Q739 21 720.5 26Q702 31 697 40.5Q692 50 692 63Q692 70 692.5 77Q693 84 694 93L735 482Q736 489 738.5 497Q741 505 741 514Q741 531 724.5 544Q708 557 688 557Q684 557 680.5 556.5Q677 556 673 556L490 539Q497 586 502 642Q507 698 509 751L509 753Q509 769 496.5 778.5Q484 788 468.5 794Q453 800 441 802.5Q429 805 427 805Q407 805 407 790Q407 786 408 783Q413 767 417 752.5Q421 738 421 720L421 714Q420 674 416.5 626Q413 578 406 531L214 513Q208 512 201.5 512Q195 512 189 512Q176 512 164.5 513.5Q153 515 138 517L137 518Q136 518 134 518Q122 518 122 506Q122 501 124 496Q125 496 130.5 482.5Q136 469 149.5 454.5Q163 440 185 440Q193 440 201.5 441Q210 442 220 443L393 458Q376 373 340.5 286Q305 199 239.5 119Q174 39 64 -35Q39 -52 39 -64Q39 -77 56 -77Q64 -77 93.5 -64.5Q123 -52 165.5 -27Q208 -2 255 39Q302 80 346.5 138Q391 196 423 273Q442 318 455.5 368.5Q469 419 478 466L654 482L614 79Q613 71 613 64.5Q613 58 613 52Q613 -6 647.5 -31.5Q682 -57 773 -57Q831 -57 869.5 -52Q908 -47 930.5 -25.5Q953 -4 961 41.5Q969 87 969 167Z" stroke="#18242a" stroke-width="16" stroke-linejoin="round" paint-order="stroke fill" fill="#18242a" transform="translate(10 28) scale(0.028 -0.028)"/><path d="M195.00 -97Q217.00 -97 217.00 -69L217.00 183L463.00 194L462.00 98Q374.00 86 290.00 83Q275.00 83 261.00 86Q246.00 86 246.00 72Q258.00 15 297.00 15Q323.00 15 458.50 37.5Q594.00 60 678.00 78L712.00 33Q724.00 15 735.00 15Q745.00 15 760.00 28.5Q775.00 42 775.00 55Q775.00 71 696.00 156Q656.00 198 641.00 198Q632.00 198 618.00 187Q604.00 176 604.00 165Q604.00 156 612.00 149Q630.00 134 638.00 125Q598.00 117 531.00 108L532.00 197L813.00 209L809.00 -12Q733.00 3 659.00 30Q642.00 36 631.00 36Q616.00 36 616.00 24Q616.00 14 642.50 -6.5Q669.00 -27 711.50 -48.5Q754.00 -70 803.00 -85Q811.00 -87 822.50 -91Q834.00 -95 841.00 -95Q856.00 -95 871.50 -81.5Q887.00 -68 887.00 -53L886.00 -23Q886.00 209 891.00 222Q894.00 230 894.00 236Q894.00 244 884.00 257Q874.00 270 854.00 270L533.00 256L533.00 308L768.00 318Q794.00 318 794.00 332Q794.00 345 757.93 373Q730.91 551 732.25 556Q733.54 561 731.77 567Q727.92 580 711.86 592Q696.20 604 687.99 604L563.34 596Q571.06 602 576.65 620Q585.06 647 593.10 672L774.40 686Q794.00 689 794.00 704Q794.00 724 773.70 746Q764.60 755 757.60 755Q751.30 755 741.85 750.5Q732.40 746 612.00 736Q619.70 770 619.70 776Q619.70 801 586.80 821Q574.20 828 567.20 828Q556.00 828 556.00 818Q556.00 811 559.85 801.5Q563.70 792 563.70 783Q563.70 771 558.80 733L442.60 723Q439.80 744 437.00 774.5Q434.20 805 395.00 805Q369.10 805 369.10 790Q369.10 784 375.40 775Q387.30 761 390.10 740L392.90 720L244.50 708Q231.90 708 225.60 710.5Q219.30 713 216.50 713Q207.40 713 207.40 702Q207.40 695 213.00 680.5Q218.60 666 226.30 656.5Q232.86 647 256.06 647Q263.09 647 269.04 648L399.90 658Q400.60 655 397.05 625Q394.64 608 405.00 596Q411.84 590 420.65 587L341.02 582Q308.50 599 294.23 599Q282.96 599 279.78 588Q278.05 582 279.41 576Q282.13 549 274.53 518Q240.04 354 239.00 341Q239.00 331 238.00 323.5Q237.00 316 237.00 309Q237.00 290 256.50 281Q276.00 272 287.00 272Q311.00 272 311.00 291L310.00 299L464.00 306L464.00 253L216.00 243L216.00 265Q216.00 277 208.00 285.5Q200.00 294 179.00 301.5Q158.00 309 147.00 309Q131.00 309 131.00 298Q131.00 291 134.00 287Q145.00 269 145.00 245Q117.00 245 92.00 250Q78.00 250 78.00 239Q78.00 221 110.00 188Q119.00 182 145.00 182L144.00 3Q144.00 -20 139.00 -54Q139.00 -70 161.00 -83.5Q183.00 -97 195.00 -97ZM323.52 472L331.08 526L473.07 534L470.42 480ZM307.77 354L314.87 415L468.48 423L465.42 362ZM533.52 364L532.34 426L686.86 434L692.67 372ZM530.35 483L529.27 537L675.49 545L681.90 492ZM546.05 595L444.37 588Q451.62 594 452.51 608L449.60 661L548.30 669Q539.82 626 540.59 612Q541.25 600 546.05 595Z" stroke="#b12e38" stroke-width="18" stroke-linejoin="round" paint-order="stroke fill" fill="#b12e38" transform="translate(10 58) scale(0.028 -0.028)"/></svg>