<svg xmlns="http://www.w3.org/2000/svg" viewBox="0 0 48 68" aria-hidden="true" focusable="false"><path d="M9 8H39V60H9ZM16 16V52H32V16Z" fill="#18242a" fill-rule="evenodd"/><path d="M10.5 9.5H37.5V58.5H10.5ZM14.5 14.5H33.5V53.5H14.5Z" fill="none" stroke="#fff9e9" stroke-width=".95"/><path d="M11.5 12H20V10.5H22V14.5M36.5 12H28V10.5H26V14.5" fill="none" stroke="#fff9e9" stroke-width="1" stroke-linecap="round" stroke-linejoin="round"/><g transform="rotate(180 24 34)"><path d="M11.5 12H20V10.5H22V14.5M36.5 12H28V10.5H26V14.5" fill="none" stroke="#fff9e9" stroke-width="1" stroke-linecap="round" stroke-linejoin="round"/></g><path d="M12.5 15V27H10.5M12.5 17H14.5V29H10.5M10.5 32H14.5M12.5 34V46H10.5M12.5 36H14.5V48H10.5M10.5 51H14.5" fill="none" stroke="#fff9e9" stroke-width="0.95" stroke-linecap="round" stroke-linejoin="round"/><g transform="rotate(180 24 34)"><path d="M12.5 15V27H10.5M12.5 17H14.5V29H10.5M10.5 32H14.5M12.5 34V46H10.5M12.5 36H14.5V48H10.5M10.5 51H14.5" fill="none" stroke="#fff9e9" stroke-width="0.95" stroke-linecap="round" stroke-linejoin="round"/></g></svg>