<svg xmlns="http://www.w3.org/2000/svg" viewBox="0 0 48 68" aria-hidden="true" focusable="false"><path d="M14 13.899999999999999Q18 24 34 43" fill="none" stroke="#245438" stroke-width="1.15" stroke-linecap="round" stroke-linejoin="round"/><path d="M11.9 11.099999999999998l2.5 3.8 2.2-3.3" fill="none" stroke="#18242a" stroke-width="1.05" stroke-linecap="round" stroke-linejoin="round"/><path d="M14.757142857142858 15.257142857142856l2.5 3.8 2.2-3.3" fill="none" stroke="#245438" stroke-width="1.05" stroke-linecap="round" stroke-linejoin="round"/><path d="M17.614285714285714 19.414285714285715l2.5 3.8 2.2-3.3" fill="none" stroke="#245438" stroke-width="1.05" stroke-linecap="round" stroke-linejoin="round"/><path d="M20.471428571428568 23.57142857142857l2.5 3.8 2.2-3.3" fill="none" stroke="#18242a" stroke-width="1.05" stroke-linecap="round" stroke-linejoin="round"/><path d="M23.328571428571426 27.728571428571428l2.5 3.8 2.2-3.3" fill="none" stroke="#245438" stroke-width="1.05" stroke-linecap="round" stroke-linejoin="round"/><path d="M26.185714285714283 31.885714285714283l2.5 3.8 2.2-3.3" fill="none" stroke="#245438" stroke-width="1.05" stroke-linecap="round" stroke-linejoin="round"/><path d="M16.6 11.6Q20.6 24 34 43" fill="none" stroke="#245438" stroke-width="1.15" stroke-linecap="round" stroke-linejoin="round"/><path d="M14.500000000000002 8.8l2.5 3.8 2.2-3.3" fill="none" stroke="#18242a" stroke-width="1.05" stroke-linecap="round" stroke-linejoin="round"/><path d="M16.985714285714284 13.285714285714285l2.5 3.8 2.2-3.3" fill="none" stroke="#245438" stroke-width="1.05" stroke-linecap="round" stroke-linejoin="round"/><path d="M19.47142857142857 17.77142857142857l2.5 3.8 2.2-3.3" fill="none" stroke="#245438" stroke-width="1.05" stroke-linecap="round" stroke-linejoin="round"/><path d="M21.957142857142856 22.257142857142856l2.5 3.8 2.2-3.3" fill="none" stroke="#18242a" stroke-width="1.05" stroke-linecap="round" stroke-linejoin="round"/><path d="M24.442857142857143 26.742857142857137l2.5 3.8 2.2-3.3" fill="none" stroke="#245438" stroke-width="1.05" stroke-linecap="round" stroke-linejoin="round"/><path d="M26.928571428571427 31.228571428571424l2.5 3.8 2.2-3.3" fill="none" stroke="#245438" stroke-width="1.05" stroke-linecap="round" stroke-linejoin="round"/><path d="M19.2 9.3Q23.2 24 34 43" fill="none" stroke="#245438" stroke-width="1.15" stroke-linecap="round" stroke-linejoin="round"/><path d="M17.099999999999998 6.500000000000001l2.5 3.8 2.2-3.3" fill="none" stroke="#18242a" stroke-width="1.05" stroke-linecap="round" stroke-linejoin="round"/><path d="M19.21428571428571 11.314285714285713l2.5 3.8 2.2-3.3" fill="none" stroke="#245438" stroke-width="1.05" stroke-linecap="round" stroke-linejoin="round"/><path d="M21.328571428571426 16.12857142857143l2.5 3.8 2.2-3.3" fill="none" stroke="#245438" stroke-width="1.05" stroke-linecap="round" stroke-linejoin="round"/><path d="M23.44285714285714 20.942857142857143l2.5 3.8 2.2-3.3" fill="none" stroke="#18242a" stroke-width="1.05" stroke-linecap="round" stroke-linejoin="round"/><path d="M25.557142857142857 25.757142857142856l2.5 3.8 2.2-3.3" fill="none" stroke="#245438" stroke-width="1.05" stroke-linecap="round" stroke-linejoin="round"/><path d="M27.67142857142857 30.571428571428573l2.5 3.8 2.2-3.3" fill="none" stroke="#245438" stroke-width="1.05" stroke-linecap="round" stroke-linejoin="round"/><path d="M21.8 7Q25.8 24 34 43" fill="none" stroke="#245438" stroke-width="1.15" stroke-linecap="round" stroke-linejoin="round"/><path d="M19.7 4.2l2.5 3.8 2.2-3.3" fill="none" stroke="#18242a" stroke-width="1.05" stroke-linecap="round" stroke-linejoin="round"/><path d="M21.442857142857143 9.342857142857142l2.5 3.8 2.2-3.3" fill="none" stroke="#245438" stroke-width="1.05" stroke-linecap="round" stroke-linejoin="round"/><path d="M23.185714285714283 14.485714285714284l2.5 3.8 2.2-3.3" fill="none" stroke="#245438" stroke-width="1.05" stroke-linecap="round" stroke-linejoin="round"/><path d="M24.928571428571427 19.628571428571426l2.5 3.8 2.2-3.3" fill="none" stroke="#18242a" stroke-width="1.05" stroke-linecap="round" stroke-linejoin="round"/><path d="M26.67142857142857 24.77142857142857l2.5 3.8 2.2-3.3" fill="none" stroke="#245438" stroke-width="1.05" stroke-linecap="round" stroke-linejoin="round"/><path d="M28.41428571428571 29.914285714285715l2.5 3.8 2.2-3.3" fill="none" stroke="#245438" stroke-width="1.05" stroke-linecap="round" stroke-linejoin="round"/><path d="M24.4 9.3Q28.4 24 34 43" fill="none" stroke="#245438" stroke-width="1.15" stroke-linecap="round" stroke-linejoin="round"/><path d="M22.299999999999997 6.500000000000001l2.5 3.8 2.2-3.3" fill="none" stroke="#18242a" stroke-width="1.05" stroke-linecap="round" stroke-linejoin="round"/><path d="M23.671428571428567 11.314285714285713l2.5 3.8 2.2-3.3" fill="none" stroke="#245438" stroke-width="1.05" stroke-linecap="round" stroke-linejoin="round"/><path d="M25.04285714285714 16.12857142857143l2.5 3.8 2.2-3.3" fill="none" stroke="#245438" stroke-width="1.05" stroke-linecap="round" stroke-linejoin="round"/><path d="M26.41428571428571 20.942857142857143l2.5 3.8 2.2-3.3" fill="none" stroke="#18242a" stroke-width="1.05" stroke-linecap="round" stroke-linejoin="round"/><path d="M27.785714285714285 25.757142857142856l2.5 3.8 2.2-3.3" fill="none" stroke="#245438" stroke-width="1.05" stroke-linecap="round" stroke-linejoin="round"/><path d="M29.157142857142855 30.571428571428573l2.5 3.8 2.2-3.3" fill="none" stroke="#245438" stroke-width="1.05" stroke-linecap="round" stroke-linejoin="round"/><path d="M27 11.6Q31 24 34 43" fill="none" stroke="#245438" stroke-width="1.15" stroke-linecap="round" stroke-linejoin="round"/><path d="M24.9 8.8l2.5 3.8 2.2-3.3" fill="none" stroke="#18242a" stroke-width="1.05" stroke-linecap="round" stroke-linejoin="round"/><path d="M25.9 13.285714285714285l2.5 3.8 2.2-3.3" fill="none" stroke="#245438" stroke-width="1.05" stroke-linecap="round" stroke-linejoin="round"/><path d="M26.9 17.77142857142857l2.5 3.8 2.2-3.3" fill="none" stroke="#245438" stroke-width="1.05" stroke-linecap="round" stroke-linejoin="round"/><path d="M27.9 22.257142857142856l2.5 3.8 2.2-3.3" fill="none" stroke="#18242a" stroke-width="1.05" stroke-linecap="round" stroke-linejoin="round"/><path d="M28.9 26.742857142857137l2.5 3.8 2.2-3.3" fill="none" stroke="#245438" stroke-width="1.05" stroke-linecap="round" stroke-linejoin="round"/><path d="M29.9 31.228571428571424l2.5 3.8 2.2-3.3" fill="none" stroke="#245438" stroke-width="1.05" stroke-linecap="round" stroke-linejoin="round"/><path d="M29.6 13.899999999999999Q33.6 24 34 43" fill="none" stroke="#245438" stroke-width="1.15" stroke-linecap="round" stroke-linejoin="round"/><path d="M27.5 11.099999999999998l2.5 3.8 2.2-3.3" fill="none" stroke="#18242a" stroke-width="1.05" stroke-linecap="round" stroke-linejoin="round"/><path d="M28.12857142857143 15.257142857142856l2.5 3.8 2.2-3.3" fill="none" stroke="#245438" stroke-width="1.05" stroke-linecap="round" stroke-linejoin="round"/><path d="M28.757142857142856 19.414285714285715l2.5 3.8 2.2-3.3" fill="none" stroke="#245438" stroke-width="1.05" stroke-linecap="round" stroke-linejoin="round"/><path d="M29.385714285714286 23.57142857142857l2.5 3.8 2.2-3.3" fill="none" stroke="#18242a" stroke-width="1.05" stroke-linecap="round" stroke-linejoin="round"/><path d="M30.014285714285712 27.728571428571428l2.5 3.8 2.2-3.3" fill="none" stroke="#245438" stroke-width="1.05" stroke-linecap="round" stroke-linejoin="round"/><path d="M30.64285714285714 31.885714285714283l2.5 3.8 2.2-3.3" fill="none" stroke="#245438" stroke-width="1.05" stroke-linecap="round" stroke-linejoin="round"/><path d="M32.2 16.2Q36.2 24 34 43" fill="none" stroke="#245438" stroke-width="1.15" stroke-linecap="round" stroke-linejoin="round"/><path d="M30.1 13.399999999999999l2.5 3.8 2.2-3.3" fill="none" stroke="#18242a" stroke-width="1.05" stroke-linecap="round" stroke-linejoin="round"/><path d="M30.35714285714286 17.228571428571428l2.5 3.8 2.2-3.3" fill="none" stroke="#245438" stroke-width="1.05" stroke-linecap="round" stroke-linejoin="round"/><path d="M30.614285714285714 21.057142857142853l2.5 3.8 2.2-3.3" fill="none" stroke="#245438" stroke-width="1.05" stroke-linecap="round" stroke-linejoin="round"/><path d="M30.871428571428574 24.885714285714283l2.5 3.8 2.2-3.3" fill="none" stroke="#18242a" stroke-width="1.05" stroke-linecap="round" stroke-linejoin="round"/><path d="M31.128571428571426 28.71428571428571l2.5 3.8 2.2-3.3" fill="none" stroke="#245438" stroke-width="1.05" stroke-linecap="round" stroke-linejoin="round"/><path d="M31.385714285714286 32.542857142857144l2.5 3.8 2.2-3.3" fill="none" stroke="#245438" stroke-width="1.05" stroke-linecap="round" stroke-linejoin="round"/><path d="M34 43q5-4 7-2m-9-2q5-5 7-4m-9-1q6-6 8-5" fill="none" stroke="#245438" stroke-width="1.25" stroke-linecap="round" stroke-linejoin="round"/><path d="M11 27q4-4 7 1q1 3-1 8q-2 5 3 8q7 4 15 0l5 3-8 3q-7 6-16 1q-8-4-5-12l3-8-3-4Z" fill="#fff9e9" stroke="#b12e38" stroke-width="1.8" stroke-linecap="round" stroke-linejoin="round"/><path d="M12 28l-6 2 6 1m2-6-1-5m3 6 2-5M19 43q2-6 6-4q6 2 8 6q-6 4-12 1" fill="none" stroke="#b12e38" stroke-width="1.35" stroke-linecap="round" stroke-linejoin="round"/><circle cx="14.5" cy="28.5" r="0.85" fill="#18242a"/><path d="M20 42q2-3 4 0q2-3 4 1m-8 1q2-2 4 1q2-2 4 1m-9 0q3 3 7 2M32 48l8 1m-9 2 7 1" fill="none" stroke="#b12e38" stroke-width="1.15" stroke-linecap="round" stroke-linejoin="round"/><path d="M19 53l-1 5-6 2m6-2 4 3m4-8-2 5-3 3m3-3 5 2m-5-2 5-2" fill="none" stroke="#18242a" stroke-width="1.5" stroke-linecap="round" stroke-linejoin="round"/></svg>